<svg height="512" viewBox="0 0 512 512" width="512" xmlns="http://www.w3.org/2000/svg"><g id="outline"><path d="m88 360h16v16h-16z"/><path d="m72 376h16v16h-16z"/><path d="m104 376h16v16h-16z"/><path d="m88 392h16v16h-16z"/><path d="m432 32h16v16h-16z"/><path d="m408 56h16v16h-16z"/><path d="m456 56h16v16h-16z"/><path d="m432 80h16v16h-16z"/><path d="m153.187 145.3a27.926 27.926 0 0 0 28.792 11.913l15.772-3.153-6.4 44.807a8 8 0 0 0 6.787 9.05l7.83 1.121c3.082.441 6.192.835 9.3 1.188v18.461l-45.655 45.654a8 8 0 0 0 2.079 12.812l6.071 3.036-5.082 5.082a33.9 33.9 0 0 0 -8.45 34.039l25.975 84.437-2.705 2.7a48.939 48.939 0 0 0 -11.825 50.07 8 8 0 0 0 10.743 4.83l56-24a8 8 0 0 0 4.541-9.55l-15.3-53.57c-.036-.125-.074-.249-.115-.371l-15.292-53.533 18.408-18.408q11.092 2.931 22.385 4.958l-12.88 30.067a33.768 33.768 0 0 0 -.326 26.025l26.437 66.095-2.554 3.835a48.627 48.627 0 0 0 -5.715 42.619l1.67 5.01a8 8 0 0 0 10.741 4.823l56-24a8 8 0 0 0 4.233-10.43l-38.783-93.078 17.449-46.533q11.364-.23 22.748-1.352a8 8 0 0 0 6.065-12.076l-46.861-78.1v-20.478c3.178-.435 6.3-.9 9.32-1.408a8 8 0 0 0 6.524-9.459l-2.814-14.093 36.1 36.107a13.912 13.912 0 0 0 6.714 3.732l46.329 10.85c.159.038.319.056.478.084.113.019.222.05.337.065l29.361 3.746c.4.052.808.108 1.21.163a41.909 41.909 0 0 0 5.864.505c5.234 0 11.6-1.562 17.29-9.026q.156-.2.3-.415a22.115 22.115 0 0 0 -10.188-32.8 8.035 8.035 0 0 0 -2.455-.555l-22.573-1.458-45-18.037-42.231-49.272a36.037 36.037 0 0 0 3.312-34.207 35.72 35.72 0 0 0 -8.11-11.848l-.638-.619a61.779 61.779 0 0 1 -15.65-26 56.006 56.006 0 0 0 -109.48 16.645v12.65a58.988 58.988 0 0 0 5.165 24.245l-17.305 2.473-39.136-58.7a23.529 23.529 0 1 0 -39.151 26.107zm65.385 251.359 11.071 38.761-40.43 17.327q-.042-.839-.043-1.679a32.737 32.737 0 0 1 9.647-23.3l6.11-6.11a8 8 0 0 0 1.989-8.008l-3.655-11.882zm-16.96-74.318a8 8 0 0 0 -2.035 7.854l14.587 51.067-15.608 5.206-19.032-61.868a17.936 17.936 0 0 1 4.476-18.013l9.141-9.141q11.867 5.19 24.1 9.271zm98.7 97.747 16.532 39.677-40.567 17.385a32.693 32.693 0 0 1 4.766-25.377l4.89-7.339a8 8 0 0 0 .769-7.408l-4.377-10.942zm-20.528-54.9a8 8 0 0 0 .106 5.886l14.252 34.2-17.769 5.923-17.673-44.168a18.117 18.117 0 0 1 .176-13.779l14.53-33.918q11.388 1.371 22.887 1.825zm41.97-60.18a269.561 269.561 0 0 1 -132.971-27.208l37.8-37.8h56.157zm-90.484-81.008v-12.37c6.745.423 13.538.65 20.29.65 9.2 0 18.479-.4 27.71-1.194v12.914zm188.1-12.477 17.709 1.144a6.123 6.123 0 0 1 2.014 8.423c-2.3 2.943-3.372 2.8-8.073 2.147-.452-.062-.9-.124-1.363-.183l-16.564-2.114zm-204.1-139.523a40.006 40.006 0 0 1 78.2-11.889 77.82 77.82 0 0 0 19.789 32.733l.647.628a20.1 20.1 0 0 1 6.094 14.418 20.1 20.1 0 0 1 -3.221 10.855c-.077-.026-.153-.059-.23-.085l-35.44-11.811a31.819 31.819 0 0 0 6.163-18.849v-24a8 8 0 0 0 -8-8h-48a8 8 0 0 0 -8 8v24a31.805 31.805 0 0 0 5.2 17.459l-7.3 1.043a42.973 42.973 0 0 1 -5.902-21.852zm40 32a16.019 16.019 0 0 1 -16-16v-16h32v16a16.018 16.018 0 0 1 -15.998 16zm15.949 16.416a15.988 15.988 0 0 1 -30.726 5.151 15.757 15.757 0 0 1 -1.2-5.49l1.1-.157a7.968 7.968 0 0 0 4.033-1.814 31.979 31.979 0 0 0 21.7 0 7.956 7.956 0 0 0 2.608 1.487zm-119.247-32.938 24.641 36.959a8 8 0 0 0 7.787 3.482l39-5.571a31.994 31.994 0 0 0 31.863 29.082 32.011 32.011 0 0 0 31.4-25.865l24.836 8.279a11.755 11.755 0 0 1 5.3 3.572l44.389 51.79a8.007 8.007 0 0 0 3.1 2.22l38.86 15.574-7.457 11.186-40.379-9.457-54.385-54.386a8 8 0 0 0 -13.5 7.226l6.357 31.788c-2.436.339-4.914.654-7.418.944a308.83 308.83 0 0 1 -34.8 1.979c-9.194 0-18.47-.417-27.568-1.238-5.207-.472-10.479-1.087-15.672-1.829l6.869-48.082a8 8 0 0 0 -9.488-8.976l-26.859 5.37a11.973 11.973 0 0 1 -12.346-5.1l-26.597-39.896zm-30.572-24.478a7.436 7.436 0 0 1 5.18-4.588 7.636 7.636 0 0 1 1.834-.225 7.531 7.531 0 0 1 6.275 3.359l8.4 12.6-12.066 9.05-8.867-13.296a7.446 7.446 0 0 1 -.756-6.9z"/><path d="m21.47 207.589a52.73 52.73 0 0 1 30.688 26.616l4.687 9.373a8 8 0 0 0 14.31 0l4.687-9.373a52.73 52.73 0 0 1 30.688-26.616 8 8 0 0 0 0-15.178 52.73 52.73 0 0 1 -30.688-26.611l-4.687-9.373a8 8 0 0 0 -14.31 0l-4.687 9.373a52.73 52.73 0 0 1 -30.688 26.611 8 8 0 0 0 0 15.178zm42.53-30.12a68.458 68.458 0 0 0 21.655 22.531 68.448 68.448 0 0 0 -21.655 22.531 68.458 68.458 0 0 0 -21.655-22.531 68.448 68.448 0 0 0 21.655-22.531z"/><path d="m490.53 344.411a52.73 52.73 0 0 1 -30.688-26.611l-4.687-9.373a8 8 0 0 0 -14.31 0l-4.687 9.373a52.73 52.73 0 0 1 -30.688 26.616 8 8 0 0 0 0 15.178 52.73 52.73 0 0 1 30.688 26.616l4.687 9.373a8 8 0 0 0 14.31 0l4.687-9.373a52.73 52.73 0 0 1 30.688-26.616 8 8 0 0 0 0-15.178zm-42.53 30.12a68.458 68.458 0 0 0 -21.655-22.531 68.448 68.448 0 0 0 21.655-22.531 68.458 68.458 0 0 0 21.655 22.531 68.448 68.448 0 0 0 -21.655 22.531z"/><path d="m139.578 272.845a8 8 0 0 0 -10.733 3.577 43.984 43.984 0 0 0 0 39.156 8 8 0 1 0 14.31-7.156 27.917 27.917 0 0 1 0-24.844 8 8 0 0 0 -3.577-10.733z"/><path d="m111.355 272.845a8 8 0 0 0 -10.733 3.577 43.984 43.984 0 0 0 0 39.156 8 8 0 0 0 14.311-7.156 27.91 27.91 0 0 1 0-24.844 8 8 0 0 0 -3.578-10.733z"/><path d="m396.058 163.045a7.975 7.975 0 0 0 5.822-2.511 43.986 43.986 0 0 0 11.285-37.495 8 8 0 1 0 -15.766 2.728 27.909 27.909 0 0 1 -7.16 23.79 8 8 0 0 0 5.819 13.488z"/><path d="m417.265 157.691a8 8 0 0 0 11.642 10.976 43.986 43.986 0 0 0 11.283-37.494 8 8 0 1 0 -15.765 2.727 27.916 27.916 0 0 1 -7.16 23.791z"/></g></svg>