<?xml version="1.0"?>
<svg xmlns="http://www.w3.org/2000/svg" id="Solid" viewBox="0 0 512 512" width="512" height="512"><circle cx="224" cy="336" r="8"/><circle cx="392" cy="296" r="40"/><circle cx="288" cy="336" r="8"/><path d="M224,248h64a24.027,24.027,0,0,0,24-24V192H200v32A24.027,24.027,0,0,0,224,248Z"/><path d="M38.3,353.3a325.054,325.054,0,0,0-6.3,63.6v.167c0,30.841,22.568,57.575,52.5,62.187A62.122,62.122,0,0,0,145.49,452.8L39.58,346.893Z"/><path d="M128,280V256H112v24a8,8,0,0,1-8,8H80v16h24a8,8,0,0,1,8,8v24h16V312a8,8,0,0,1,8-8h24V288H136A8,8,0,0,1,128,280Z"/><path d="M472.42,346.893,366.51,452.8a62.106,62.106,0,0,0,59.209,26.706C456.665,475.63,480,448.764,480,417.016v-.11a325.054,325.054,0,0,0-6.3-63.6Z"/><path d="M445.3,211.293A24.065,24.065,0,0,0,421.766,192H328v32a40.045,40.045,0,0,1-40,40H224a40.045,40.045,0,0,1-40-40V192H90.234A24.065,24.065,0,0,0,66.7,211.293L43.351,328.037l110.3,110.3,21.35-39.653A43.087,43.087,0,0,1,212.99,376h86.02A43.087,43.087,0,0,1,337,398.688l21.35,39.653,110.3-110.3ZM176,312a8,8,0,0,1-8,8H144v24a8,8,0,0,1-8,8H104a8,8,0,0,1-8-8V320H72a8,8,0,0,1-8-8V280a8,8,0,0,1,8-8H96V248a8,8,0,0,1,8-8h32a8,8,0,0,1,8,8v24h24a8,8,0,0,1,8,8Zm48,48a24,24,0,1,1,24-24A24.027,24.027,0,0,1,224,360Zm64,0a24,24,0,1,1,24-24A24.027,24.027,0,0,1,288,360Zm104-8a56,56,0,1,1,56-56A56.064,56.064,0,0,1,392,352Z"/><path d="M248,176V80a32,32,0,0,0-64,0,48,48,0,0,1-96,0V40a8,8,0,0,1,16,0V80a32,32,0,0,0,64,0,48,48,0,0,1,96,0v96Z"/></svg>
