<svg height="384pt" viewBox="-7 0 383 384" width="384pt" xmlns="http://www.w3.org/2000/svg"><path d="m96.5 46.496094 119.777344-35.199219c-1.984375 19.453125-15.496094 35.796875-34.234375 41.398437l-63.800781 18.769532c-3.402344 1-5.742188 4.121094-5.742188 7.671875v85.664062c-4.800781-2.8125-10.265625-4.296875-15.832031-4.296875h-.167969zm-75 158.945312c-5.050781-4.65625-6.433594-12.078125-3.398438-18.242187l1.0625-2.128907c2.34375-4.707031 6.929688-7.890624 12.160157-8.445312s10.382812 1.597656 13.664062 5.710938l13.601563 16.9375c1.566406 1.808593 3.84375 2.847656 6.238281 2.847656s4.671875-1.039063 6.238281-2.847656l13.601563-16.945313c3.285156-4.113281 8.441406-6.265625 13.675781-5.703125 5.234375.558594 9.816406 3.753906 12.15625 8.472656l1.0625 2.09375c.441406 1.007813.765625 2.0625.96875 3.144532v7.640624c-.695312 2.863282-2.203125 5.460938-4.34375 7.488282l-43.328125 39.71875zm0 0"/><path d="m208.5 182.113281 16-4.371093v106.554687c-4.800781-2.8125-10.265625-4.296875-15.832031-4.296875h-.167969zm11.65625 142.796875-43.328125 39.730469-43.328125-39.730469c-5.058594-4.660156-6.425781-12.105468-3.359375-18.261718l1.054687-2.128907c2.351563-4.703125 6.9375-7.882812 12.164063-8.4375 5.230469-.550781 10.378906 1.601563 13.660156 5.710938l13.601563 16.941406c1.574218 1.808594 3.851562 2.84375 6.246094 2.84375 2.394531 0 4.675781-1.035156 6.25-2.84375l13.597656-16.941406c3.285156-4.109375 8.4375-6.257813 13.667968-5.707031 5.226563.554687 9.816407 3.738281 12.164063 8.441406l1.066406 2.128906c3.035157 6.175781 1.628907 13.617188-3.457031 18.253906zm-11.65625-159.390625v-31.40625l160-43.632812v31.40625zm160-27.046875v82.328125c-4.660156-2.71875-9.949219-4.183593-15.34375-4.257812v-73.886719zm-4.34375 122.960938-43.328125 39.71875-43.328125-39.710938c-5.050781-4.65625-6.433594-12.078125-3.398438-18.242187l1.0625-2.128907c2.34375-4.707031 6.929688-7.890624 12.160157-8.445312s10.382812 1.597656 13.664062 5.710938l13.601563 16.9375c1.566406 1.808593 3.84375 2.847656 6.238281 2.847656s4.671875-1.039063 6.238281-2.847656l13.601563-16.945313c3.285156-4.113281 8.441406-6.265625 13.675781-5.703125 5.234375.558594 9.816406 3.753906 12.15625 8.472656l1.0625 2.09375c3.035156 6.164063 1.648438 13.585938-3.40625 18.242188zm0 0"/><path d="m304.5 0h16v16h-16zm0 0"/><path d="m304.5 48h16v16h-16zm0 0"/><path d="m280.5 24h16v16h-16zm0 0"/><path d="m328.5 24h16v16h-16zm0 0"/><path d="m32.5 304h16v16h-16zm0 0"/><path d="m32.5 368h16v16h-16zm0 0"/><path d="m.5 336h16v16h-16zm0 0"/><path d="m64.5 336h16v16h-16zm0 0"/></svg>