<svg height="448pt" viewBox="0 0 448 448" width="448pt" xmlns="http://www.w3.org/2000/svg"><path d="m224 256.480469c0-17.671875-25.070312-32-56-32s-56 14.328125-56 32 25.070312 32 56 32 56-14.328125 56-32zm0 0"/><path d="m160 192.160156c.011719-5.019531-2.402344-9.734375-6.480469-12.65625-2.660156-1.976562-5.886719-3.035156-9.199219-3.023437-3.519531-.113281-6.972656.945312-9.824218 3.007812-4.085938 2.925781-6.507813 7.644531-6.496094 12.671875l.726562 23.902344c9.949219-4.136719 20.519532-6.589844 31.273438-7.261719zm0 0"/><path d="m201.519531 179.503906c-2.660156-1.976562-5.886719-3.035156-9.199219-3.023437-3.519531-.113281-6.972656.945312-9.824218 3.007812-4.085938 2.925781-6.507813 7.644531-6.496094 12.671875v16.640625c10.753906.679688 21.324219 3.140625 31.273438 7.289063l.726562-24.179688c-.046875-4.933594-2.457031-9.546875-6.480469-12.40625zm0 0"/><path d="m64.558594 191.601562c-.128906-4.042968-1.824219-7.875-4.726563-10.691406-.515625-.515625-1.074219-.992187-1.671875-1.414062-5.519531-3.953125-12.945312-3.953125-18.464844 0-4.3125 3.0625-6.765624 8.117187-6.503906 13.398437l10.984375 127.105469h27.824219zm0 0"/><path d="m192 368h80v48h-80zm0 0"/><path d="m221.078125 289.144531-.964844 30.855469h27.816407l7.527343-127.753906c.023438-8.683594-7-15.746094-15.683593-15.769532-8.6875-.023437-15.75 6.996094-15.773438 15.683594l-.992188 33.0625c10.242188 7.1875 16.527344 18.753906 16.992188 31.257813-.597656 13.324219-7.660156 25.515625-18.921875 32.664062zm0 0"/><path d="m408 144h8v-16h-107.054688c4.84375 4.210938 8.300782 9.789062 9.917969 16zm0 0"/><path d="m0 448h124.6875l21.65625-21.65625c3.125-3.121094 8.1875-3.121094 11.3125 0l21.65625 21.65625h124.6875v-112h-304zm176-88c0-4.417969 3.582031-8 8-8h96c4.417969 0 8 3.582031 8 8v64c0 4.417969-3.582031 8-8 8h-96c-4.417969 0-8-3.582031-8-8zm-160 0c0-4.417969 3.582031-8 8-8h96c4.417969 0 8 3.582031 8 8v64c0 4.417969-3.582031 8-8 8h-96c-4.417969 0-8-3.582031-8-8zm0 0"/><path d="m32 368h80v48h-80zm0 0"/><path d="m320 0h16v112h-16zm0 0"/><path d="m288 136c-.273438.046875-.800781.046875-1.078125.0625-2.75.164062-5.40625 1.058594-7.691406 2.59375-3.535157 2.355469-8.292969 1.535156-10.839844-1.863281l-.796875-1.152344c-.335938-.472656-.664062-.929687-1.019531-1.359375-2.640625-3.222656-2.367188-7.929688.625-10.824219 1.691406-1.628906 3-3.613281 3.832031-5.808593.65625-1.8125.984375-3.722657.96875-5.648438.027344-6.539062-3.945312-12.433594-10.015625-14.859375-6.074219-2.429687-13.011719-.902344-17.503906 3.851563-2.5625 2.660156-6.613281 3.21875-9.800781 1.355468-3.1875-1.863281-4.683594-5.667968-3.625-9.203125.570312-1.660156.886718-3.390625.945312-5.144531-.117188-8.023438-6.15625-14.71875-14.125-15.65625s-15.398438 4.167969-17.378906 11.945312c-1.144532 4.265626-5.371094 6.945313-9.71875 6.164063s-7.375-4.765625-6.960938-9.164063c0-.074218.105469-.800781.113282-.847656.472656-5.949218-2.402344-11.667968-7.460938-14.832031-5.058594-3.167969-11.457031-3.253906-16.601562-.230469-5.144532 3.027344-8.175782 8.660156-7.867188 14.621094 0 .070312.175781 1.214844.183594 1.289062.257812 2.140626-.363282 4.296876-1.71875 5.976563-1.355469 1.679687-3.332032 2.742187-5.480469 2.941406-4.210937.78125-8.320313-1.789062-9.457031-5.917969-1.941406-7.820312-9.394532-12.976562-17.398438-12.035156s-14.058594 7.6875-14.128906 15.746094c.058594 1.753906.375 3.484375.945312 5.144531 1.058594 3.535157-.4375 7.339844-3.625 9.203125-3.1875 1.863282-7.238281 1.304688-9.800781-1.355468-4.492187-4.753907-11.429687-6.28125-17.503906-3.851563-6.070313 2.425781-10.042969 8.320313-10.015625 14.859375-.03125 4.3125 1.703125 8.449219 4.800781 11.449219 3 2.894531 3.277344 7.605469.632813 10.832031-.355469.429688-.679688.886719-1.019532 1.359375l-.796874 1.152344c-2.535157 3.386719-7.265626 4.21875-10.800782 1.894531-4.902344-3.28125-11.210937-3.589844-16.410156-.800781-5.195312 2.785156-8.429688 8.214843-8.40625 14.113281.207031 4.109375 1.746094 8.042969 4.382812 11.199219 10.289063-4.339844 22.085938-3.054688 31.203126 3.394531 1.242187.902344 2.414062 1.898438 3.511718 2.972656.519532.511719.910156 1.121094 1.390625 1.664063 10.804688-12.328125 29.246094-14.34375 42.457031-4.636719 1.847657 1.34375 3.542969 2.890625 5.054688 4.605469 1.507812-1.722657 3.199219-3.277344 5.039062-4.640625 5.398438-3.976563 11.933594-6.113282 18.640626-6.09375 9.296874-.199219 18.203124 3.730468 24.320312 10.734375 1.507812-1.722657 3.199219-3.277344 5.039062-4.640625 5.398438-3.976563 11.933594-6.113282 18.640626-6.09375 9.296874-.199219 18.203124 3.730468 24.320312 10.734375 6-6.816407 14.640625-10.71875 23.71875-10.71875 9.082031 0 17.722656 3.902343 23.722656 10.71875 9.011719-10.265625 23.640625-13.503907 36.144532-8 .269531-.351563.589843-.679688.796874-1.039063.082032-.132812.171876-.261718.273438-.382812 1.96875-2.769532 3.125-6.035156 3.34375-9.425782.070312-4.296874-1.582031-8.441406-4.589844-11.511718-3.003906-3.074219-7.113281-4.816406-11.410156-4.839844zm-80 8.480469c0-8.835938-7.164062-16-16-16v-16c17.671875 0 32 14.328125 32 32zm0 0"/><path d="m320 336v112h10.664062l30.566407-73.351562c6.75-16.191407 23.984375-25.367188 41.1875-21.929688 17.199219 3.441406 29.578125 18.539062 29.582031 36.082031v59.199219h16v-112zm0 0"/><path d="m376 380.800781-28 67.199219h36.40625l4.144531-78.878906c-5.671875 1.898437-10.25 6.15625-12.550781 11.679687zm0 0"/><path d="m204.105469 320 .6875-22.121094c-9.230469 3.535156-18.9375 5.660156-28.800781 6.304688v15.816406zm0 0"/><path d="m399.566406 160h-80.796875c-1.054687 3.945312-2.761719 7.6875-5.058593 11.0625-.117188.167969-.238282.335938-.367188.488281-.335938.480469-.75.898438-1.113281 1.359375 4.234375 5.527344 6.535156 12.289063 6.546875 19.25v1.121094l-10.90625 126.71875h83.257812zm0 0"/><path d="m302.800781 192.160156c.007813-3.574218-1.191406-7.050781-3.410156-9.855468-.894531-1.035157-1.902344-1.960938-3.007813-2.769532-5.46875-4.019531-12.910156-4.039062-18.398437-.046875-4 2.828125-6.417969 7.390625-6.503906 12.289063v.078125 1.328125l-6.960938 119.289062c-.011719.230469-.035156.464844-.070312.695313.003906.082031.003906.164062 0 .246093l-.449219 6.585938h27.816406l11.007813-127.40625zm0 0"/><path d="m160 320v-15.816406c-9.863281-.644532-19.570312-2.769532-28.800781-6.304688l.695312 22.121094zm0 0"/><path d="m105.519531 179.503906c-5.519531-3.957031-12.945312-3.957031-18.464843 0-3.988282 2.832032-6.398438 7.386719-6.496094 12.28125v.949219l7.511718 127.265625h27.816407l-.964844-30.855469c-11.261719-7.148437-18.324219-19.339843-18.921875-32.664062.464844-12.5 6.753906-24.0625 16.992188-31.25l-.992188-32.832031c.070312-5.097657-2.347656-9.910157-6.480469-12.894532zm0 0"/></svg>